<svg width="24" height="18" viewBox="0 0 24 18" fill="none" xmlns="http://www.w3.org/2000/svg">
<path d="M15.8496 11.2088C15.8496 10.9115 15.7181 10.7486 15.5197 10.6323C15.3178 10.5202 15.0742 10.5049 14.7407 10.5049H13.2624V13.1227H13.9099V12.1695H14.6027C14.8305 12.1695 14.9735 12.1918 15.0591 12.2858C15.1748 12.4056 15.1604 12.6374 15.1604 12.7975V13.1206H15.7893V12.6054C15.7893 12.3735 15.7749 12.2573 15.6886 12.1264C15.604 12.0282 15.4942 11.9533 15.3703 11.9092L15.3882 11.9015C15.5643 11.8368 15.8496 11.6258 15.8496 11.2088ZM15.0145 11.5854L14.9879 11.5819C14.9017 11.6328 14.8011 11.6369 14.6695 11.6369H13.8955V11.0528H14.6854C14.8011 11.0528 14.9132 11.0528 15.0037 11.1002C15.0488 11.1215 15.0864 11.1553 15.1116 11.1973C15.1368 11.2393 15.1485 11.2877 15.1453 11.3362C15.1453 11.4483 15.1 11.5346 15.0181 11.5861L15.0145 11.5854ZM19.9519 12.5615H18.7093V13.1206H19.9598C20.6066 13.1206 20.9659 12.8623 20.9659 12.3011C20.9659 12.0394 20.9027 11.8834 20.787 11.7609C20.6411 11.6376 20.4082 11.5792 20.0877 11.5687L19.7276 11.5541C19.627 11.5541 19.5559 11.5541 19.4811 11.5255C19.4385 11.5126 19.4014 11.4865 19.3755 11.4511C19.3497 11.4158 19.3365 11.3732 19.3381 11.3299C19.3381 11.2464 19.3532 11.1774 19.4244 11.1377C19.5043 11.0946 19.5953 11.0743 19.6867 11.0793H20.8617V10.5216H19.5702C18.8968 10.5216 18.6532 10.9275 18.6532 11.3014C18.6532 12.1389 19.3949 12.095 20.0015 12.1097C20.0985 12.1097 20.1732 12.1236 20.2142 12.1633C20.2595 12.1932 20.2925 12.2614 20.2925 12.3304C20.2925 12.4028 20.2587 12.4717 20.2178 12.4975C20.1624 12.5476 20.0762 12.5622 19.9526 12.5622L19.9519 12.5615ZM0.502156 0V7.23473L1.27761 5.4907H2.9543L3.17062 5.92236V5.4907H5.12832L5.55881 6.43686L5.97852 5.49836H12.2109C12.4919 5.49836 12.7456 5.55197 12.9332 5.71906V5.50462H14.6473V5.71906C14.9383 5.55962 15.302 5.50462 15.7174 5.50462H18.2134L18.4462 5.93628V5.50462H20.2839L20.5261 5.93628V5.50114H22.3084V9.16814H20.5002L20.156 8.60907V9.15282H17.8986L17.655 8.56869H17.0937L16.8357 9.1375H15.675C15.2143 9.1375 14.8701 9.04351 14.6379 8.9168V9.1375H11.8674V8.31875C11.8674 8.20666 11.8415 8.20666 11.7704 8.19134H11.669V9.15212H6.31271V8.71002L6.11076 9.15212H4.99536L4.8006 8.71002V9.14098H2.64096L2.39732 8.56103H1.83962L1.59743 9.14098H0.5V18H11.8958H23.2916V13.5397C23.0336 13.6657 22.7044 13.7061 22.3595 13.7061H20.7094V13.4701C20.5074 13.6226 20.1632 13.7061 19.8333 13.7061H14.5962V12.8727C14.5962 12.7606 14.5768 12.7606 14.4805 12.7606H14.4094V13.7103H12.6838V12.721C12.3992 12.8484 12.0658 12.8581 11.7927 12.8484H11.5907V13.6971H9.50294L8.98261 13.1234L8.43569 13.6824H5.04423V10.0342H8.50325L9.00058 10.5933L9.5324 10.0342H11.8415C12.111 10.0342 12.5487 10.0642 12.7435 10.2452V10.0203H14.8284C15.0231 10.0203 15.4464 10.0642 15.6965 10.2299V10.0092H18.8221V10.2299C18.9795 10.0774 19.313 10.0092 19.5932 10.0092H21.4043V10.2299C21.5919 10.0927 21.8499 10.0092 22.2092 10.0092H23.3361V0.000696349L11.9191 0.000348175L0.502156 0ZM20.7748 11.7414C20.7784 11.749 20.7784 11.756 20.7827 11.7602C20.7942 11.7664 20.8085 11.7664 20.8164 11.7776L20.7755 11.7449L20.7748 11.7414ZM23.3354 10.005H23.3994V10.5202H23.3354V10.005ZM23.3685 11.8138V11.8061C23.3426 11.7845 23.3275 11.7636 23.2973 11.7414C23.1558 11.6 22.9229 11.5416 22.5672 11.5346L22.2193 11.5241C22.1072 11.5241 22.036 11.5165 21.9613 11.4956C21.9187 11.4826 21.8817 11.4564 21.8558 11.4211C21.83 11.3858 21.8168 11.3432 21.8183 11.3C21.8183 11.2164 21.8478 11.1503 21.9045 11.1106C21.9757 11.0709 22.0461 11.0639 22.1625 11.0639H23.3347L23.3354 10.5202H22.1072C21.4439 10.5202 21.1866 10.9261 21.1866 11.3C21.1866 12.1333 21.9347 12.0937 22.5377 12.1083C22.639 12.1083 22.7102 12.1187 22.7511 12.1619C22.7964 12.1918 22.8259 12.2601 22.8259 12.329C22.8253 12.3613 22.8173 12.3931 22.8024 12.422C22.7875 12.451 22.766 12.4763 22.7396 12.4961C22.6944 12.5462 22.6081 12.5608 22.4816 12.5608H21.2455V13.1227H22.478C22.8812 13.1227 23.1816 13.0141 23.3426 12.7892H23.3685C23.4547 12.6618 23.5 12.51 23.5 12.3039C23.5 12.0783 23.4547 11.9412 23.3685 11.8138ZM18.3233 11.0493V10.5091H16.1817V13.138H18.3233V12.5942H16.8177V12.0686H18.286V11.5248H16.8177V11.0535L18.3233 11.0493ZM13.4499 6.01565H14.1047V8.63065H13.4499V6.01565ZM13.0791 6.71953L13.0712 6.72719C13.0712 6.43269 12.9476 6.26281 12.7456 6.14724C12.5394 6.03097 12.2972 6.01983 11.9716 6.01983H10.4969V8.63762H11.1437V7.67683H11.8329C12.0607 7.67683 12.2073 7.70538 12.3008 7.78892C12.4179 7.91633 12.4021 8.14052 12.4021 8.29647V8.62717H13.0496V8.11545C13.0496 7.88361 13.0345 7.76734 12.944 7.63297C12.8597 7.53622 12.7517 7.46152 12.6299 7.41575C12.7684 7.35647 12.8854 7.25859 12.9662 7.13459C13.047 7.01059 13.0878 6.86609 13.0834 6.71953H13.0791ZM12.2598 7.08644H12.2483C12.1585 7.13657 12.0607 7.14005 11.9299 7.14005H11.1401V6.56009H11.9299C12.0456 6.56009 12.1578 6.56357 12.244 6.60744C12.3302 6.64364 12.3899 6.72719 12.3899 6.83928C12.3899 6.95137 12.3446 7.04258 12.2598 7.08644ZM15.7591 6.56009H16.362V6.00521H15.744C15.302 6.00521 14.9764 6.10337 14.7673 6.31085C14.4942 6.58934 14.4223 6.95207 14.4223 7.34404C14.4223 7.81956 14.538 8.11615 14.7673 8.33755C14.9879 8.55825 15.3846 8.62787 15.6951 8.62787H16.4447L16.6883 8.04374H18.02L18.2709 8.62787H19.5731V6.6694L20.7942 8.62787H21.7076V6.01635H21.0486V7.84044L19.9188 6.01983H18.9414V8.44198L17.8555 5.97666H16.8932L15.9912 8.04026H15.703C15.5356 8.04026 15.3552 8.01171 15.2546 7.91285C15.1345 7.7757 15.0785 7.57936 15.0785 7.30018C15.0785 7.03561 15.1532 6.82466 15.2617 6.71605C15.3889 6.58864 15.5241 6.56009 15.7562 6.56009H15.7591ZM17.3574 6.46262L17.7994 7.4993V7.50278H16.9082L17.3574 6.46262ZM2.78182 8.04305L3.02545 8.62717H4.33561V6.58237L5.26774 8.62717H5.82544L6.75685 6.58237L6.77194 8.62717H7.43385V6.01983H6.36373L5.59259 7.78544L4.75101 6.01635H3.70676V8.48932L2.61365 6.01635H1.65924L0.514374 8.62787H1.20215L1.44938 8.04792H2.78254L2.78182 8.04305ZM2.12279 6.46262L2.56478 7.4993L2.56118 7.50278H1.68511L2.12279 6.46262ZM11.8624 10.5049H9.81197L8.99555 11.3605L8.20572 10.5049H5.62708V13.1227H8.16834L8.98764 12.2566L9.77819 13.1199H11.0237V12.2489H11.8286C12.4014 12.2489 12.9476 12.0964 12.9476 11.3717L12.944 11.3682C12.944 10.6434 12.3719 10.5049 11.8624 10.5049ZM7.85356 12.5761H6.2703V12.0575H7.67677V11.5248H6.2703V11.0535H7.87943L8.58374 11.8145L7.84997 12.5796L7.85356 12.5761ZM10.3833 12.8846L9.39513 11.818L10.3833 10.7924V12.8846ZM11.8696 11.7163H11.0237V11.0486H11.8696C12.1017 11.0486 12.2742 11.1398 12.2742 11.3682C12.2742 11.5966 12.1326 11.7163 11.8696 11.7163ZM10.0549 6.56009V6.01635H7.90962V8.63135H10.0549V8.09108H8.54925V7.56822H10.0132V7.03144H8.54925V6.56009H10.0549Z" fill="#255FC6"/>
</svg>
