<svg width="29" height="22" viewBox="0 0 29 22" fill="none" xmlns="http://www.w3.org/2000/svg">
<path fill-rule="evenodd" clip-rule="evenodd" d="M8.40957 19.3249V20.4496V21.5744H7.91003V21.3013C7.75159 21.5038 7.51117 21.6309 7.18438 21.6309C6.54015 21.6309 6.03511 21.137 6.03511 20.4496C6.03511 19.7628 6.54015 19.2683 7.18438 19.2683C7.51117 19.2683 7.75159 19.3955 7.91003 19.598V19.3249H8.40957ZM7.24653 19.7294C6.81411 19.7294 6.54949 20.0542 6.54949 20.4496C6.54949 20.845 6.81411 21.1698 7.24653 21.1698C7.6597 21.1698 7.93862 20.859 7.93862 20.4496C7.93862 20.0402 7.6597 19.7294 7.24653 19.7294ZM25.2905 20.4496C25.2905 20.0542 25.5551 19.7294 25.9875 19.7294C26.4012 19.7294 26.6796 20.0402 26.6796 20.4496C26.6796 20.859 26.4012 21.1698 25.9875 21.1698C25.5551 21.1698 25.2905 20.845 25.2905 20.4496ZM27.1511 18.4216V20.4496V21.5744H26.651V21.3013C26.4925 21.5038 26.2521 21.6309 25.9253 21.6309C25.2811 21.6309 24.7761 21.137 24.7761 20.4496C24.7761 19.7628 25.2811 19.2683 25.9253 19.2683C26.2521 19.2683 26.4925 19.3955 26.651 19.598V18.4216H27.1511ZM14.6103 19.7063C14.9322 19.7063 15.139 19.904 15.1919 20.2519H13.9997C14.053 19.9271 14.2544 19.7063 14.6103 19.7063ZM13.4759 20.4496C13.4759 19.7483 13.9469 19.2683 14.6202 19.2683C15.2639 19.2683 15.7062 19.7483 15.7112 20.4496C15.7112 20.5153 15.7062 20.5768 15.7013 20.6376H13.9953C14.0673 21.0427 14.3606 21.1887 14.6824 21.1887C14.9129 21.1887 15.1583 21.1036 15.3508 20.9533L15.5957 21.3158C15.3167 21.5464 14.9998 21.6309 14.6538 21.6309C13.9661 21.6309 13.4759 21.165 13.4759 20.4496ZM20.6521 20.4496C20.6521 20.0542 20.9167 19.7294 21.3492 19.7294C21.7623 19.7294 22.0413 20.0402 22.0413 20.4496C22.0413 20.859 21.7623 21.1698 21.3492 21.1698C20.9167 21.1698 20.6521 20.845 20.6521 20.4496ZM22.5122 19.3249V20.4496V21.5744H22.0127V21.3013C21.8537 21.5038 21.6138 21.6309 21.287 21.6309C20.6428 21.6309 20.1377 21.137 20.1377 20.4496C20.1377 19.7628 20.6428 19.2683 21.287 19.2683C21.6138 19.2683 21.8537 19.3955 22.0127 19.598V19.3249H22.5122ZM17.8309 20.4496C17.8309 21.1321 18.3161 21.6309 19.0566 21.6309C19.4027 21.6309 19.6332 21.5555 19.883 21.3627L19.6431 20.9673C19.4555 21.0993 19.2585 21.1698 19.0418 21.1698C18.6429 21.165 18.3497 20.8827 18.3497 20.4496C18.3497 20.0165 18.6429 19.7343 19.0418 19.7294C19.2585 19.7294 19.4555 19.8 19.6431 19.932L19.883 19.5366C19.6332 19.3438 19.4027 19.2683 19.0566 19.2683C18.3161 19.2683 17.8309 19.7671 17.8309 20.4496ZM23.6658 19.598C23.7956 19.4003 23.9832 19.2683 24.2715 19.2683C24.3727 19.2683 24.5169 19.2872 24.6274 19.3297L24.4734 19.7908C24.3678 19.7483 24.2621 19.7343 24.1609 19.7343C23.8341 19.7343 23.6707 19.9411 23.6707 20.3133V21.5744H23.1706V19.3249H23.6658V19.598ZM10.8803 19.5037C10.6399 19.3486 10.3087 19.2683 9.94336 19.2683C9.3613 19.2683 8.98665 19.5414 8.98665 19.9885C8.98665 20.3554 9.26557 20.5816 9.77942 20.6522L10.0154 20.685C10.2894 20.7227 10.4187 20.7933 10.4187 20.9204C10.4187 21.0944 10.236 21.1935 9.89495 21.1935C9.5489 21.1935 9.29913 21.0853 9.13079 20.9581L8.89532 21.339C9.1693 21.5367 9.51534 21.6309 9.89 21.6309C10.5535 21.6309 10.938 21.325 10.938 20.8967C10.938 20.5013 10.6355 20.2945 10.1354 20.2239L9.8999 20.1905C9.68369 20.1625 9.51039 20.1205 9.51039 19.9697C9.51039 19.8048 9.67379 19.7063 9.94776 19.7063C10.241 19.7063 10.5249 19.8145 10.6641 19.8991L10.8803 19.5037ZM16.7207 19.598C16.85 19.4003 17.0376 19.2683 17.3259 19.2683C17.4271 19.2683 17.5713 19.2872 17.6818 19.3297L17.5278 19.7908C17.4222 19.7483 17.3165 19.7343 17.2153 19.7343C16.8885 19.7343 16.7251 19.9411 16.7251 20.3133V21.5744L16.2256 21.5744V19.3249H16.7207V19.598ZM13.0627 19.3249H12.2457V18.6424H11.7407V19.3249H11.2747V19.772H11.7407V20.7981C11.7407 21.3201 11.9475 21.6309 12.5384 21.6309C12.7551 21.6309 13.0049 21.5652 13.1634 21.4569L13.0192 21.0379C12.8701 21.1224 12.7067 21.165 12.5769 21.165C12.3271 21.165 12.2457 21.0142 12.2457 20.7885V19.772H13.0627V19.3249ZM5.5933 20.1625V21.5744H5.08826V20.3225C5.08826 19.9411 4.92487 19.7294 4.58377 19.7294C4.25203 19.7294 4.02152 19.9368 4.02152 20.3274V21.5744H3.51648V20.3225C3.51648 19.9411 3.34868 19.7294 3.01694 19.7294C2.6753 19.7294 2.45414 19.9368 2.45414 20.3274V21.5744H1.94965L1.94965 19.3249H2.44973L2.44973 19.6023C2.63734 19.3389 2.8772 19.2683 3.12257 19.2683C3.47357 19.2683 3.72334 19.4192 3.88178 19.6686C4.09359 19.3529 4.39617 19.2635 4.6894 19.2683C5.24726 19.2732 5.5933 19.6309 5.5933 20.1625Z" fill="#231F20"/>
<path d="M18.2859 15.5026H10.7147V2.18036H18.2859V15.5026Z" fill="#FF5F00"/>
<path d="M11.195 8.84175C11.195 6.13927 12.4873 3.73198 14.4997 2.18063C13.0281 1.0462 11.1708 0.369101 9.15224 0.369101C4.37362 0.369101 0.5 4.16237 0.5 8.84175C0.5 13.5211 4.37362 17.3144 9.15224 17.3144C11.1708 17.3144 13.0281 16.6373 14.4997 15.5029C12.4873 13.9515 11.195 11.5442 11.195 8.84175Z" fill="#EA4335"/>
<path d="M28.5 8.84175C28.5 13.5211 24.6263 17.3144 19.8477 17.3144C17.8292 17.3144 15.9719 16.6373 14.4997 15.5029C16.5127 13.9515 17.805 11.5442 17.805 8.84175C17.805 6.13927 16.5127 3.73198 14.4997 2.18063C15.9719 1.0462 17.8292 0.369101 19.8477 0.369101C24.6263 0.369101 28.5 4.16237 28.5 8.84175Z" fill="#F79E1B"/>
</svg>
