<svg width="35" height="12" viewBox="0 0 35 12" fill="none" xmlns="http://www.w3.org/2000/svg">
<path fill-rule="evenodd" clip-rule="evenodd" d="M9.00036 11.4192H6.05787L3.85136 2.87806C3.74663 2.48517 3.52426 2.13783 3.19716 1.97412C2.38084 1.56272 1.48131 1.23531 0.5 1.07018V0.74135H5.24011C5.89432 0.74135 6.38497 1.23531 6.46675 1.80899L7.61161 7.97L10.5527 0.74135H13.4134L9.00036 11.4192ZM15.0489 11.4192H12.27L14.5582 0.74135H17.3372L15.0489 11.4192ZM20.9324 3.69941C21.0142 3.1243 21.5048 2.79547 22.0773 2.79547C22.9768 2.71291 23.9567 2.87803 24.7744 3.28801L25.2651 0.989019C24.4473 0.660185 23.5478 0.495056 22.7315 0.495056C20.0343 0.495056 18.0717 1.9741 18.0717 4.02682C18.0717 5.58842 19.4619 6.40837 20.4432 6.90234C21.5048 7.39487 21.9137 7.72371 21.8319 8.21625C21.8319 8.95506 21.0142 9.28389 20.1979 9.28389C19.2166 9.28389 18.2353 9.03762 17.3372 8.62622L16.8465 10.9266C17.8278 11.3366 18.8895 11.5017 19.8708 11.5017C22.895 11.5829 24.7744 10.1053 24.7744 7.88741C24.7744 5.09446 20.9324 4.93076 20.9324 3.69941ZM34.5 11.4192L32.2935 0.74135H29.9234C29.4328 0.74135 28.9421 1.07018 28.7786 1.56272L24.6927 11.4192H27.5534L28.1244 9.85902H31.6393L31.9664 11.4192H34.5ZM30.3323 3.61688L31.1486 7.64118H28.8604L30.3323 3.61688Z" fill="#1A1F71"/>
</svg>
